<svg xmlns="http://www.w3.org/2000/svg" viewBox="0 0 48 48" width="48" height="48"><title>cauldron</title><g class="nc-icon-wrapper" stroke-linecap="square" stroke-linejoin="miter" stroke-width="2" fill="#000000" stroke="#000000"><line data-cap="butt" fill="none" stroke="#000000" stroke-miterlimit="10" x1="8.2505903" y1="41.711235" x2="5" y2="46" stroke-linecap="butt"/> <line data-cap="butt" fill="none" stroke="#000000" stroke-miterlimit="10" x1="39.7494087" y1="41.711235" x2="43" y2="46" stroke-linecap="butt"/> <path data-cap="butt" fill="none" stroke="#000000" stroke-miterlimit="10" d="M6,14v8 c-2.5145264,3.5699463-4,6-4,10c0,10.125,9.8497314,12,22,12s22-1.875,22-12c0-4-1.4854736-6.4300537-4-10v-8" stroke-linecap="butt"/> <path data-cap="butt" data-color="color-2" fill="none" stroke-miterlimit="10" d="M27.2319431,10.0643024 C26.1845913,10.0221596,25.1020279,10,24,10c-9.9411621,0-18,1.7907715-18,4c0,3.4589233,15.1613827,4.0926056,20,3.973999V28 c0,1.6568604,1.3431396,3,3,3s3-1.3431396,3-3V17.5793457C37.9215088,16.9243164,42,15.5697021,42,14 c0-1.6701069-4.5825005-3.098958-11.1251431-3.6979017" stroke-linecap="butt"/> <circle data-color="color-2" fill="none" stroke-miterlimit="10" cx="18" cy="5" r="2"/> <circle data-color="color-2" fill="none" stroke-miterlimit="10" cx="29" cy="11" r="2"/></g></svg>