<svg xmlns="http://www.w3.org/2000/svg" viewBox="0 0 64 64" width="64" height="64"><title>dead hand</title><g class="nc-icon-wrapper" stroke-linecap="square" stroke-linejoin="miter" stroke-width="2" fill="#000000" stroke="#000000"><path data-cap="butt" data-color="color-2" fill="none" stroke-miterlimit="10" d="M20,22.1020756V8 c0-2.2000008,1.7999992-4,4-4l0,0c2.2000008,0,4,1.7999992,4,4v14" stroke-linecap="butt"/> <path data-cap="butt" data-color="color-2" fill="none" stroke-miterlimit="10" d="M36,22V6 c0-2.2000008-1.7999992-4-4-4l0,0c-2.2000008,0-4,1.7999992-4,4l0,0v2" stroke-linecap="butt"/> <path data-cap="butt" data-color="color-2" fill="none" stroke-miterlimit="10" d="M36,8L36,8 c0-2.2000008,1.7999992-4,4-4l0,0c2.2000008,0,4,1.7999992,4,4v10" stroke-linecap="butt"/> <path data-cap="butt" data-color="color-2" fill="none" stroke-miterlimit="10" d="M48.0000038,28h-0.0000076 C45.7908592,28,44,26.2091408,44,24.0000038v-6.0000076C44,15.7908592,45.7908592,14,47.9999962,14h0.0000076 C50.2091408,14,52,15.7908592,52,17.9999962v6.0000076C52,26.2091408,50.2091408,28,48.0000038,28z" stroke-linecap="butt"/> <path data-cap="butt" data-color="color-2" fill="none" stroke-miterlimit="10" d="M23,62l-0.0021591-15.0325432 C18.1751099,43.7382164,15,38.2399025,15,32V20h0.0000067C18.8659973,20,22,23.1340027,22,26.9999924V30 c4.4182777,0,8,3.5817223,8,8" stroke-linecap="butt"/> <path data-cap="butt" data-color="color-2" fill="none" stroke-miterlimit="10" d="M52,20v12.0000381 c0,5.3306618-2.317215,10.1201096-6,13.4153938v8.8380775" stroke-linecap="butt"/> <path fill="none" stroke="#000000" stroke-miterlimit="10" d="M2,62h28 c0-2.2092285,1.7908936-4,4-4c0.9974365,0,1.8983154,0.3781738,2.598877,0.9820557C37.7910156,56.0617676,40.6508789,54,44,54 c4.418335,0,8,3.581665,8,8h10"/></g></svg>