<svg xmlns="http://www.w3.org/2000/svg" viewBox="0 0 48 48" width="48" height="48"><title>ghost</title><g class="nc-icon-wrapper" stroke-linecap="square" stroke-linejoin="miter" stroke-width="2" fill="#000000" stroke="#000000"><circle data-color="color-2" cx="17" cy="19" r="2" fill="none" stroke-miterlimit="10"/> <circle data-color="color-2" cx="31" cy="19" r="2" fill="none" stroke-miterlimit="10"/> <circle data-color="color-2" data-stroke="none" cx="17" cy="19" r="2" stroke="none"/> <circle data-color="color-2" data-stroke="none" cx="31" cy="19" r="2" stroke="none"/> <path d="M24,2h0A16,16,0,0,0,8,18V46H40V18A16,16,0,0,0,24,2Z" fill="none" stroke="#000000" stroke-miterlimit="10"/> <line data-color="color-2" x1="2" y1="7" x2="2" y2="13" fill="none" stroke-miterlimit="10"/> <line data-color="color-2" x1="46" y1="7" x2="46" y2="13" fill="none" stroke-miterlimit="10"/> <path data-color="color-2" d="M28,28v7a4,4,0,0,1-4,4h0a4,4,0,0,1-4-4V28Z" fill="none" stroke-miterlimit="10"/> <path data-color="color-2" data-stroke="none" d="M16,25a7.991,7.991,0,0,0,4,6.921V28h8v3.921A7.991,7.991,0,0,0,32,25Z" stroke="none"/></g></svg>