<svg xmlns="http://www.w3.org/2000/svg" viewBox="0 0 64 64" width="64" height="64"><title>net</title><g class="nc-icon-wrapper" stroke-linecap="square" stroke-linejoin="miter" stroke-width="2" fill="#000000" stroke="#000000"><path fill="none" stroke="#000000" stroke-miterlimit="10" d="M19.674,52.543 C20.848,50.587,9.696,32,7.348,32c2.348,0,13.5-18.587,12.326-20.543c1.174,1.957,23.478,1.957,24.652,0 C43.152,13.413,54.304,32,56.652,32c-2.348,0-13.5,18.587-12.326,20.543C43.152,50.587,20.848,50.587,19.674,52.543z"/> <path fill="none" stroke="#000000" stroke-miterlimit="10" d="M25.437,42.957 C26.062,41.913,19.609,32,18.304,32c1.304,0,7.758-9.913,7.133-10.957c0.625,1.043,12.5,1.043,13.125,0 C37.938,22.087,44.391,32,45.696,32c-1.304,0-7.758,9.913-7.133,10.957C37.938,41.913,26.062,41.913,25.437,42.957z"/> <line data-color="color-2" fill="none" stroke-miterlimit="10" x1="2" y1="32" x2="62" y2="32"/> <line data-color="color-2" fill="none" stroke-miterlimit="10" x1="16.481" y1="6.326" x2="47.519" y2="57.674"/> <line data-color="color-2" fill="none" stroke-miterlimit="10" x1="47.519" y1="6.326" x2="16.481" y2="57.674"/></g></svg>