<svg id="logo-instagram" xmlns="http://www.w3.org/2000/svg" width="38.918" height="38.919" viewBox="0 0 38.918 38.919">
  <path id="Path_15" data-name="Path 15" d="M596.79,1018.54c5.2,0,5.813.019,7.864.113a7.358,7.358,0,0,1,7.979,7.977c.091,2.054.113,2.669.113,7.866s-.019,5.81-.113,7.864a7.358,7.358,0,0,1-7.979,7.976c-2.051.094-2.666.113-7.864.113s-5.812-.019-7.864-.113a7.357,7.357,0,0,1-7.976-7.976c-.094-2.051-.116-2.669-.116-7.864s.021-5.813.116-7.866a7.357,7.357,0,0,1,7.976-7.977c2.051-.094,2.666-.113,7.864-.113m0-3.506c-5.284,0-5.947.024-8.027.118-3.16.142-5.936.918-8.164,3.149s-3,5-3.149,8.165c-.094,2.081-.118,2.744-.118,8.027s.024,5.947.118,8.027c.145,3.16.918,5.939,3.149,8.17s5,3,8.164,3.144c2.075.094,2.739.118,8.027.118s5.947-.024,8.027-.118c3.163-.142,5.939-.918,8.17-3.149s3-5,3.147-8.165c.094-2.075.115-2.738.115-8.027s-.022-5.947-.115-8.027c-.145-3.163-.921-5.939-3.149-8.17s-5-3-8.167-3.144C602.737,1015.058,602.076,1015.034,596.79,1015.034Z" transform="translate(-577.331 -1015.034)" fill="#fff"/>
  <path id="Path_16" data-name="Path 16" d="M590.85,1018.56a9.993,9.993,0,1,0,9.993,9.993,9.993,9.993,0,0,0-9.993-9.993Zm0,16.479a6.486,6.486,0,1,1,6.486-6.486A6.487,6.487,0,0,1,590.85,1035.039Z" transform="translate(-571.39 -1009.093)" fill="#fff"/>
  <ellipse id="Ellipse_15" data-name="Ellipse 15" cx="2.335" cy="2.335" rx="2.335" ry="2.335" transform="translate(27.511 6.737)" fill="#fff"/>
</svg>
