<svg id="logo-twitter" xmlns="http://www.w3.org/2000/svg" width="38.918" height="31.46" viewBox="0 0 38.918 31.46">
  <path id="Path_13" data-name="Path 13" d="M591.682,1020.071a17.767,17.767,0,0,1-4.623,1.3,7.8,7.8,0,0,0,3.487-4.376,17.555,17.555,0,0,1-5.109,1.944,8.087,8.087,0,0,0-5.837-2.513,7.962,7.962,0,0,0-7.947,7.947,6.366,6.366,0,0,0,.244,1.783,22.71,22.71,0,0,1-16.458-8.35,8.3,8.3,0,0,0-1.055,3.971,7.94,7.94,0,0,0,3.568,6.65,9.4,9.4,0,0,1-3.649-.974v.083a8.012,8.012,0,0,0,6.406,7.864,8.868,8.868,0,0,1-2.11.244,10.22,10.22,0,0,1-1.538-.164,7.937,7.937,0,0,0,7.458,5.514,16.215,16.215,0,0,1-9.891,3.4,13.541,13.541,0,0,1-1.866-.081,22.588,22.588,0,0,0,12.243,3.568c14.675,0,22.7-12.162,22.7-22.7v-1.055A14.538,14.538,0,0,0,591.682,1020.071Z" transform="translate(-552.764 -1016.423)" fill="#fff"/>
</svg>
