<svg id="logo-facebook" xmlns="http://www.w3.org/2000/svg" width="37.297" height="37.066" viewBox="0 0 37.297 37.066">
  <path id="Path_12" data-name="Path 12" d="M566.684,1034.025a18.648,18.648,0,1,0-21.564,18.42v-13.032h-4.733v-5.389h4.733v-4.11c0-4.674,2.784-7.254,7.045-7.254a28.656,28.656,0,0,1,4.175.362v4.591h-2.352a2.7,2.7,0,0,0-3.026,2.314,2.8,2.8,0,0,0-.013.6v3.5h5.173l-.827,5.389h-4.346v13.032A18.649,18.649,0,0,0,566.684,1034.025Z" transform="translate(-529.387 -1015.379)" fill="#fff"/>
</svg>
